%TF.GenerationSoftware,KiCad,Pcbnew,10.0.5*%
%TF.CreationDate,2026-07-30T10:08:31+05:30*%
%TF.ProjectId,LM317 Power Supply PCB,4c4d3331-3720-4506-9f77-657220537570,rev?*%
%TF.SameCoordinates,Original*%
%TF.FileFunction,Copper,L1,Top*%
%TF.FilePolarity,Positive*%
%FSLAX46Y46*%
G04 Gerber Fmt 4.6, Leading zero omitted, Abs format (unit mm)*
G04 Created by KiCad (PCBNEW 10.0.5) date 2026-07-30 10:08:31*
%MOMM*%
%LPD*%
G01*
G04 APERTURE LIST*
G04 Aperture macros list*
%AMRoundRect*
0 Rectangle with rounded corners*
0 $1 Rounding radius*
0 $2 $3 $4 $5 $6 $7 $8 $9 X,Y pos of 4 corners*
0 Add a 4 corners polygon primitive as box body*
4,1,4,$2,$3,$4,$5,$6,$7,$8,$9,$2,$3,0*
0 Add four circle primitives for the rounded corners*
1,1,$1+$1,$2,$3*
1,1,$1+$1,$4,$5*
1,1,$1+$1,$6,$7*
1,1,$1+$1,$8,$9*
0 Add four rect primitives between the rounded corners*
20,1,$1+$1,$2,$3,$4,$5,0*
20,1,$1+$1,$4,$5,$6,$7,0*
20,1,$1+$1,$6,$7,$8,$9,0*
20,1,$1+$1,$8,$9,$2,$3,0*%
G04 Aperture macros list end*
%TA.AperFunction,ComponentPad*%
%ADD10R,1.905000X2.000000*%
%TD*%
%TA.AperFunction,ComponentPad*%
%ADD11O,1.905000X2.000000*%
%TD*%
%TA.AperFunction,ComponentPad*%
%ADD12C,1.440000*%
%TD*%
%TA.AperFunction,ComponentPad*%
%ADD13C,1.600000*%
%TD*%
%TA.AperFunction,ComponentPad*%
%ADD14RoundRect,0.250000X-1.050000X-1.050000X1.050000X-1.050000X1.050000X1.050000X-1.050000X1.050000X0*%
%TD*%
%TA.AperFunction,ComponentPad*%
%ADD15C,2.600000*%
%TD*%
%TA.AperFunction,ComponentPad*%
%ADD16R,1.800000X1.800000*%
%TD*%
%TA.AperFunction,ComponentPad*%
%ADD17C,1.800000*%
%TD*%
%TA.AperFunction,ComponentPad*%
%ADD18RoundRect,0.249999X-0.850001X-0.850001X0.850001X-0.850001X0.850001X0.850001X-0.850001X0.850001X0*%
%TD*%
%TA.AperFunction,ComponentPad*%
%ADD19C,2.200000*%
%TD*%
%TA.AperFunction,ComponentPad*%
%ADD20RoundRect,0.250000X-0.550000X-0.550000X0.550000X-0.550000X0.550000X0.550000X-0.550000X0.550000X0*%
%TD*%
%TA.AperFunction,ViaPad*%
%ADD21C,0.600000*%
%TD*%
%TA.AperFunction,Conductor*%
%ADD22C,0.200000*%
%TD*%
G04 APERTURE END LIST*
D10*
%TO.P,U1,1,ADJ_1*%
%TO.N,Net-(U1-ADJ)*%
X134960000Y-88500000D03*
D11*
%TO.P,U1,2,VO_2*%
%TO.N,Net-(D1-A)*%
X137500000Y-88500000D03*
%TO.P,U1,3,VI_3*%
%TO.N,Net-(D1-K)*%
X140040000Y-88500000D03*
%TD*%
D12*
%TO.P,RV1,1,1_1*%
%TO.N,GND*%
X149040000Y-99220000D03*
%TO.P,RV1,2,2_2*%
%TO.N,Net-(U1-ADJ)*%
X146500000Y-101760000D03*
%TO.P,RV1,3,3_3*%
X143960000Y-99220000D03*
%TD*%
D13*
%TO.P,R3,1*%
%TO.N,Net-(D1-A)*%
X159570000Y-101240000D03*
%TO.P,R3,2*%
%TO.N,Net-(D2-A)*%
X167190000Y-101240000D03*
%TD*%
%TO.P,R1,1*%
%TO.N,Net-(D1-A)*%
X145690000Y-86000000D03*
%TO.P,R1,2*%
%TO.N,Net-(U1-ADJ)*%
X153310000Y-86000000D03*
%TD*%
D14*
%TO.P,Output1,1,Pin_1_1*%
%TO.N,GND*%
X160750000Y-90917500D03*
D15*
%TO.P,Output1,2,Pin_2_2*%
%TO.N,Net-(D1-A)*%
X164250000Y-90917500D03*
%TD*%
D14*
%TO.P,Input1,1,Pin_1_1*%
%TO.N,Net-(D1-K)*%
X132250000Y-76917500D03*
D15*
%TO.P,Input1,2,Pin_2_2*%
%TO.N,GND*%
X135750000Y-76917500D03*
%TD*%
D16*
%TO.P,D2,1,K_1*%
%TO.N,GND*%
X160460000Y-107000000D03*
D17*
%TO.P,D2,2,A_2*%
%TO.N,Net-(D2-A)*%
X163000000Y-107000000D03*
%TD*%
D18*
%TO.P,D1,1,K_1*%
%TO.N,Net-(D1-K)*%
X137920000Y-94000000D03*
D19*
%TO.P,D1,2,A_2*%
%TO.N,Net-(D1-A)*%
X148080000Y-94000000D03*
%TD*%
D20*
%TO.P,C3,1*%
%TO.N,GND*%
X156294888Y-81000000D03*
D13*
%TO.P,C3,2*%
%TO.N,Net-(U1-ADJ)*%
X158794888Y-81000000D03*
%TD*%
D20*
%TO.P,C2,1*%
%TO.N,GND*%
X163294888Y-80500000D03*
D13*
%TO.P,C2,2*%
%TO.N,Net-(D1-A)*%
X165794888Y-80500000D03*
%TD*%
D20*
%TO.P,C1,1*%
%TO.N,Net-(D1-K)*%
X123847349Y-87500000D03*
D13*
%TO.P,C1,2*%
%TO.N,GND*%
X127347349Y-87500000D03*
%TD*%
D21*
%TO.N,Net-(D1-A)*%
X154409485Y-96409485D03*
X153000000Y-95000000D03*
X146000000Y-89500000D03*
%TO.N,Net-(D1-K)*%
X133159485Y-78659485D03*
%TO.N,GND*%
X148000000Y-81000000D03*
%TD*%
%TO.N,Net-(D1-A)*%
D22*
X153000000Y-95000000D02*
X154409485Y-96409485D01*
X152500000Y-94500000D02*
X153000000Y-95000000D01*
X152000000Y-94500000D02*
X152500000Y-94500000D01*
X148080000Y-94000000D02*
X151500000Y-94000000D01*
X151500000Y-94000000D02*
X152000000Y-94500000D01*
X145690000Y-89190000D02*
X146000000Y-89500000D01*
X145690000Y-86000000D02*
X145690000Y-89190000D01*
X140000000Y-86000000D02*
X137500000Y-88500000D01*
X145690000Y-86000000D02*
X140000000Y-86000000D01*
%TO.N,Net-(D1-K)*%
X140040000Y-91880000D02*
X137920000Y-94000000D01*
X140040000Y-88500000D02*
X140040000Y-91880000D01*
%TO.N,Net-(U1-ADJ)*%
X143960000Y-95350000D02*
X143960000Y-99220000D01*
X153310000Y-86000000D02*
X143960000Y-95350000D01*
%TO.N,GND*%
X160750000Y-83250000D02*
X160750000Y-90917500D01*
X163294888Y-80705112D02*
X160750000Y-83250000D01*
X163294888Y-80500000D02*
X163294888Y-80705112D01*
%TO.N,Net-(D1-A)*%
X165794888Y-89372612D02*
X164250000Y-90917500D01*
X165794888Y-80500000D02*
X165794888Y-89372612D01*
%TO.N,Net-(D2-A)*%
X167190000Y-102810000D02*
X163000000Y-107000000D01*
X167190000Y-101240000D02*
X167190000Y-102810000D01*
%TO.N,Net-(D1-A)*%
X159570000Y-95597500D02*
X164250000Y-90917500D01*
X159570000Y-101240000D02*
X159570000Y-95597500D01*
%TO.N,GND*%
X152680000Y-99220000D02*
X160460000Y-107000000D01*
X149040000Y-99220000D02*
X152680000Y-99220000D01*
X152447500Y-99220000D02*
X160750000Y-90917500D01*
X149040000Y-99220000D02*
X152447500Y-99220000D01*
%TO.N,Net-(U1-ADJ)*%
X146500000Y-101760000D02*
X143960000Y-99220000D01*
X137780000Y-99220000D02*
X143960000Y-99220000D01*
X135000000Y-102000000D02*
X137780000Y-99220000D01*
X134960000Y-101960000D02*
X135000000Y-102000000D01*
X134960000Y-88500000D02*
X134960000Y-101960000D01*
%TO.N,Net-(D1-K)*%
X132250000Y-77750000D02*
X133159485Y-78659485D01*
X132250000Y-76917500D02*
X132250000Y-77750000D01*
%TO.N,Net-(U1-ADJ)*%
X153794888Y-86000000D02*
X153310000Y-86000000D01*
X158794888Y-81000000D02*
X153794888Y-86000000D01*
%TO.N,GND*%
X162694888Y-79900000D02*
X163294888Y-80500000D01*
X157394888Y-79900000D02*
X162694888Y-79900000D01*
X156294888Y-81000000D02*
X157394888Y-79900000D01*
X139832500Y-81000000D02*
X148000000Y-81000000D01*
X135750000Y-76917500D02*
X139832500Y-81000000D01*
X127347349Y-85320151D02*
X127347349Y-87500000D01*
X135750000Y-76917500D02*
X127347349Y-85320151D01*
%TO.N,Net-(D1-K)*%
X123847349Y-83347349D02*
X123847349Y-87500000D01*
X124582500Y-76917500D02*
X121000000Y-80500000D01*
X121000000Y-80500000D02*
X123847349Y-83347349D01*
X132250000Y-76917500D02*
X124582500Y-76917500D01*
%TD*%
M02*
